<mxfile host="app.diagrams.net" agent="Mozilla/5.0 (Macintosh; Intel Mac OS X 10_15_7) AppleWebKit/537.36 (KHTML, like Gecko) Chrome/128.0.0.0 Safari/537.36" version="24.7.6">
  <diagram name="Page-1" id="vmMOMaKg83fpBtPp_FP5">
    <mxGraphModel dx="1466" dy="856" grid="1" gridSize="10" guides="1" tooltips="1" connect="1" arrows="1" fold="1" page="1" pageScale="1" pageWidth="850" pageHeight="1100" math="0" shadow="0">
      <root>
        <mxCell id="0" />
        <mxCell id="1" parent="0" />
        <mxCell id="KbUzIHEdm-FoHE05M6es-13" style="edgeStyle=orthogonalEdgeStyle;rounded=0;orthogonalLoop=1;jettySize=auto;html=1;" parent="1" source="KbUzIHEdm-FoHE05M6es-1" target="KbUzIHEdm-FoHE05M6es-3" edge="1">
          <mxGeometry relative="1" as="geometry">
            <Array as="points">
              <mxPoint x="245" y="195" />
              <mxPoint x="245" y="260" />
            </Array>
          </mxGeometry>
        </mxCell>
        <mxCell id="KbUzIHEdm-FoHE05M6es-14" value="Get" style="edgeLabel;html=1;align=center;verticalAlign=middle;resizable=0;points=[];" parent="KbUzIHEdm-FoHE05M6es-13" vertex="1" connectable="0">
          <mxGeometry x="-0.161" y="-1" relative="1" as="geometry">
            <mxPoint as="offset" />
          </mxGeometry>
        </mxCell>
        <mxCell id="KbUzIHEdm-FoHE05M6es-1" value="Users" style="rounded=1;whiteSpace=wrap;html=1;" parent="1" vertex="1">
          <mxGeometry x="30" y="140" width="140" height="110" as="geometry" />
        </mxCell>
        <mxCell id="KbUzIHEdm-FoHE05M6es-6" style="edgeStyle=orthogonalEdgeStyle;rounded=0;orthogonalLoop=1;jettySize=auto;html=1;" parent="1" source="KbUzIHEdm-FoHE05M6es-2" target="KbUzIHEdm-FoHE05M6es-3" edge="1">
          <mxGeometry relative="1" as="geometry" />
        </mxCell>
        <mxCell id="KbUzIHEdm-FoHE05M6es-7" value="Have" style="edgeLabel;html=1;align=center;verticalAlign=middle;resizable=0;points=[];" parent="KbUzIHEdm-FoHE05M6es-6" vertex="1" connectable="0">
          <mxGeometry x="-0.0667" relative="1" as="geometry">
            <mxPoint as="offset" />
          </mxGeometry>
        </mxCell>
        <mxCell id="KbUzIHEdm-FoHE05M6es-2" value="Vendors" style="rounded=1;whiteSpace=wrap;html=1;" parent="1" vertex="1">
          <mxGeometry x="320" y="90" width="220" height="70" as="geometry" />
        </mxCell>
        <mxCell id="KbUzIHEdm-FoHE05M6es-9" style="edgeStyle=orthogonalEdgeStyle;rounded=0;orthogonalLoop=1;jettySize=auto;html=1;" parent="1" source="KbUzIHEdm-FoHE05M6es-3" target="KbUzIHEdm-FoHE05M6es-8" edge="1">
          <mxGeometry relative="1" as="geometry">
            <mxPoint x="590" y="245" as="targetPoint" />
          </mxGeometry>
        </mxCell>
        <mxCell id="KbUzIHEdm-FoHE05M6es-10" value="Have" style="edgeLabel;html=1;align=center;verticalAlign=middle;resizable=0;points=[];" parent="KbUzIHEdm-FoHE05M6es-9" vertex="1" connectable="0">
          <mxGeometry x="0.1765" y="1" relative="1" as="geometry">
            <mxPoint as="offset" />
          </mxGeometry>
        </mxCell>
        <mxCell id="KbUzIHEdm-FoHE05M6es-15" style="edgeStyle=orthogonalEdgeStyle;rounded=0;orthogonalLoop=1;jettySize=auto;html=1;entryX=0.5;entryY=0;entryDx=0;entryDy=0;" parent="1" source="KbUzIHEdm-FoHE05M6es-3" target="KbUzIHEdm-FoHE05M6es-4" edge="1">
          <mxGeometry relative="1" as="geometry" />
        </mxCell>
        <mxCell id="KbUzIHEdm-FoHE05M6es-16" value="Make" style="edgeLabel;html=1;align=center;verticalAlign=middle;resizable=0;points=[];" parent="KbUzIHEdm-FoHE05M6es-15" vertex="1" connectable="0">
          <mxGeometry x="0.3185" y="3" relative="1" as="geometry">
            <mxPoint as="offset" />
          </mxGeometry>
        </mxCell>
        <mxCell id="KbUzIHEdm-FoHE05M6es-3" value="Stores" style="rounded=1;whiteSpace=wrap;html=1;" parent="1" vertex="1">
          <mxGeometry x="320" y="220" width="120" height="80" as="geometry" />
        </mxCell>
        <mxCell id="KbUzIHEdm-FoHE05M6es-17" style="edgeStyle=orthogonalEdgeStyle;rounded=0;orthogonalLoop=1;jettySize=auto;html=1;exitX=1;exitY=0.5;exitDx=0;exitDy=0;entryX=0;entryY=0.5;entryDx=0;entryDy=0;" parent="1" source="KbUzIHEdm-FoHE05M6es-4" target="KbUzIHEdm-FoHE05M6es-5" edge="1">
          <mxGeometry relative="1" as="geometry" />
        </mxCell>
        <mxCell id="KbUzIHEdm-FoHE05M6es-18" value="Make" style="edgeLabel;html=1;align=center;verticalAlign=middle;resizable=0;points=[];" parent="KbUzIHEdm-FoHE05M6es-17" vertex="1" connectable="0">
          <mxGeometry x="-0.1478" y="-2" relative="1" as="geometry">
            <mxPoint as="offset" />
          </mxGeometry>
        </mxCell>
        <mxCell id="KbUzIHEdm-FoHE05M6es-4" value="Orders" style="rounded=1;whiteSpace=wrap;html=1;" parent="1" vertex="1">
          <mxGeometry x="130" y="400" width="120" height="60" as="geometry" />
        </mxCell>
        <mxCell id="KbUzIHEdm-FoHE05M6es-19" style="edgeStyle=orthogonalEdgeStyle;rounded=0;orthogonalLoop=1;jettySize=auto;html=1;" parent="1" source="KbUzIHEdm-FoHE05M6es-5" edge="1">
          <mxGeometry relative="1" as="geometry">
            <mxPoint x="540" y="430" as="targetPoint" />
          </mxGeometry>
        </mxCell>
        <mxCell id="qbvTKSDbpgrrYDnAVNsF-1" value="Get" style="edgeLabel;html=1;align=center;verticalAlign=middle;resizable=0;points=[];" vertex="1" connectable="0" parent="KbUzIHEdm-FoHE05M6es-19">
          <mxGeometry x="-0.3156" y="-5" relative="1" as="geometry">
            <mxPoint as="offset" />
          </mxGeometry>
        </mxCell>
        <mxCell id="KbUzIHEdm-FoHE05M6es-5" value="Payment&amp;nbsp;" style="rounded=1;whiteSpace=wrap;html=1;" parent="1" vertex="1">
          <mxGeometry x="365" y="400" width="95" height="60" as="geometry" />
        </mxCell>
        <mxCell id="KbUzIHEdm-FoHE05M6es-8" value="Items" style="rounded=1;whiteSpace=wrap;html=1;" parent="1" vertex="1">
          <mxGeometry x="560" y="240" width="120" height="60" as="geometry" />
        </mxCell>
        <mxCell id="KbUzIHEdm-FoHE05M6es-21" style="edgeStyle=orthogonalEdgeStyle;rounded=0;orthogonalLoop=1;jettySize=auto;html=1;entryX=0.5;entryY=1;entryDx=0;entryDy=0;" parent="1" source="KbUzIHEdm-FoHE05M6es-20" target="KbUzIHEdm-FoHE05M6es-4" edge="1">
          <mxGeometry relative="1" as="geometry" />
        </mxCell>
        <mxCell id="KbUzIHEdm-FoHE05M6es-22" value="Accept" style="edgeLabel;html=1;align=center;verticalAlign=middle;resizable=0;points=[];" parent="KbUzIHEdm-FoHE05M6es-21" vertex="1" connectable="0">
          <mxGeometry x="-0.2" y="1" relative="1" as="geometry">
            <mxPoint as="offset" />
          </mxGeometry>
        </mxCell>
        <mxCell id="KbUzIHEdm-FoHE05M6es-20" value="Drivers" style="rounded=1;whiteSpace=wrap;html=1;" parent="1" vertex="1">
          <mxGeometry x="130" y="570" width="110" height="60" as="geometry" />
        </mxCell>
        <mxCell id="KbUzIHEdm-FoHE05M6es-23" value="Delivery" style="rounded=1;whiteSpace=wrap;html=1;" parent="1" vertex="1">
          <mxGeometry x="540" y="400" width="110" height="60" as="geometry" />
        </mxCell>
      </root>
    </mxGraphModel>
  </diagram>
</mxfile>
